# xmcd
#
# Track frame offsets:
#	150
#	14594
#	29855
#	45094
#	60723
#	79083
#	97874
#	116407
#	136248
#	152173
#	171029
#	190177
#	206149
#	218028
#
# Disc length: 3139 seconds
# Revision: 0
# Processed by: cddbd v1.5.2PL0 Copyright (c) Steve Scherf et al.
# Submitted via: dBpowerAMP V12.0
#
DISCID=b90c410e
DTITLE=Alain Morisod  - Couleur country
DYEAR=1900
DGENRE=Country
TTITLE0=ce n'est qu'un reve
TTITLE1=T'envoler
TTITLE2=On est fait l'un pour l'autre
TTITLE3=04
TTITLE4=La cabane a danser
TTITLE5=Les jeux sont faits
TTITLE6=Xalifornia blue
TTITLE7=River blue
TTITLE8=Perce les nuages
TTITLE9=Si loin du bayou
TTITLE10=Si tu reviens
TTITLE11=Quand le soleil dit bonjour aux montagnes
TTITLE12=Baton rouge
TTITLE13=Ma plus belle chanson d'amour
EXTD=
EXTT0=
EXTT1=
EXTT2=
EXTT3=
EXTT4=
EXTT5=
EXTT6=
EXTT7=
EXTT8=
EXTT9=
EXTT10=
EXTT11=
EXTT12=
EXTT13=
PLAYORDER=
